<?xml version="1.0" encoding="UTF-8" standalone="no"?><svg width="159" height="159" viewBox="0 0 159 159" xmlns="http://www.w3.org/2000/svg" xmlns:xlink="http://www.w3.org/1999/xlink"><svg width="14" height="10" viewBox="0 0 14 10" id="checkmark" x="135" y="24"><title>Checkmark</title><g transform="translate(2 1.43)" stroke="#FFF" stroke-width="2" fill="none" fill-rule="evenodd" stroke-linecap="square"><path d="M.278 3.056l3.38 3.38M3.61 6.39L9.748.252"/></g></svg><svg width="24" height="24" viewBox="0 0 24 24" id="seat-occupied-icon" x="135"><title>Combined Shape</title><path d="M10.568 11.982L1.093 2.507.386 1.8 1.8.386l.707.707 9.475 9.475 9.476-9.475.707-.707L23.58 1.8l-.708.707-9.475 9.475 9.475 9.476.707.707-1.416 1.414-.707-.71-9.476-9.474-9.474 9.475-.707.708-1.415-1.415.707-.707 9.475-9.476z" fill="#C8CFD6" fill-rule="evenodd"/></svg><svg width="135" height="159" viewBox="0 0 135 159" id="success-air-icon"><title>Success Air Icon</title><g transform="translate(0 -46.4)" fill="#FFF" fill-rule="evenodd" opacity=".098"><path d="M193.865 42.254v.004-.004C182.952 26.488 167.183 13.94 147.77 7.24 99.288-9.473 46.577 16.56 29.857 65.417L0 69.63l25.386 15.424 146.956-33.21-147.398 50.743c.124 1.755.31 3.498.53 5.24l171.82-60.284a97.318 97.318 0 0 0-3.43-5.29M204.084 57.56l25.6-17.063-27.096 13.666-166.212 83.88-16.843 42.552 32.063-21.372a93.257 93.257 0 0 0 3.408 3.362c.85.81 1.738 1.586 2.625 2.36L187.34 76.98 72.332 175.49l-.012.013-8.125 29.303 22.967-22.444c.41.153.808.322 1.22.466 48.597 16.758 101.444-9.433 118.044-58.502 7.676-22.69 6.212-46.28-2.342-66.766"/></g></svg></svg>