<?xml version="1.0" encoding="UTF-8" standalone="no"?><svg xmlns="http://www.w3.org/2000/svg" xmlns:xlink="http://www.w3.org/1999/xlink"><symbol viewBox="0 0 36 36" id="calendar-icon"><title>Calendar</title><g fill="#0979C0" fill-rule="evenodd"><path d="M2 3.99v28.02c0 1.1.89 1.99 1.99 1.99h28.02c1.1 0 1.99-.89 1.99-1.99V3.99C34 2.89 33.11 2 32.01 2H3.99C2.89 2 2 2.89 2 3.99zm-2 0A3.99 3.99 0 0 1 3.99 0h28.02A3.99 3.99 0 0 1 36 3.99v28.02A3.99 3.99 0 0 1 32.01 36H3.99A3.99 3.99 0 0 1 0 32.01V3.99z"/><path d="M8 9V25.3c0 .937.896 1.7 2 1.7h16c1.104 0 2-.763 2-1.7V9H8zm19.107 9.865h-5.02v-6.082h5.02v6.082zm-12.024-6.082h6.053v6.082h-6.053v-6.082zm6.053 13.332h-6.052V19.81h6.052v6.305zm-7.005-7.25H8.89v-6.082h5.24v6.082zM8.894 25.3v-5.49h5.238v6.305H10c-.6 0-1.107-.374-1.107-.816zM26 26.114h-3.913V19.81h5.02v5.49c0 .44-.507.815-1.107.815z"/></g></symbol><symbol viewBox="0 0 14 29" id="chevron"><title>Arrow</title><path d="M13 28L2.503 14.782 13 1.564" fill="none"/></symbol><symbol viewBox="0 0 14 6" id="down-arrow"><title>Triangle</title><path d="M7 6L0 0h14"/></symbol><symbol viewBox="0 0 16 10" id="dropdown-arrow"><title>Down Arrow</title><path d="M1.887 0L8 6.15 14.113 0 16 1.898 8 9.946 0 1.898 1.887 0z" fill="#0979C0" fill-rule="evenodd"/></symbol><symbol viewBox="0 0 26 22" id="error-icon"><title>Combined Shape</title><path d="M1.733 21.56c-1.65 0-2.224-1.28-1.276-2.843L11.092 1.172c.948-1.564 2.5-1.564 3.447 0l10.634 17.543c.948 1.565.373 2.844-1.276 2.844H1.733zm10.97-14.84l.133 7.53h1.297l.133-7.53h-1.563zm-.297 10.335c0 .633.453 1.086 1.086 1.086s1.078-.453 1.078-1.085c0-.64-.445-1.094-1.078-1.094s-1.086.454-1.086 1.095z" fill="#FFF" fill-rule="evenodd"/></symbol><symbol viewBox="0 0 19 19" id="plane-icon"><title>Fill 1</title><path d="M18.086 2.767c1.182-1.194-.453-2.753-1.62-1.575l-4.308 4.35-9.87-2.634-1.646 1.66 8.136 4.327-3.29 3.322-2.56-.317-1.3 1.314 2.902 1.54 1.526 2.93 1.3-1.313-.298-2.566 3.29-3.322 4.193 8.16 1.647-1.66-2.498-9.764 4.397-4.45z" fill-rule="evenodd"/></symbol><symbol viewBox="0 0 15 13" id="round-trip-arrows"><title>Round Trip Icon</title><path d="M11 0v2H0v2h11v2l4-3-4-3zM4 13v-2h11V9H4V7l-4 3 4 3z" fill="#FFF" fill-rule="evenodd"/></symbol></svg>